Patient4_TMGait_0pt8_01_left_17_EMG.mot
version=1
nRows=36
nColumns=33
inDegrees=no
endheader
time	1LAddLong	2LGlutMax	3LGlutMed	4LIliopsoas	5LSemiMemb	6LBicFemLong	7LRecFem	8LVastMed	9LVastLat	10LGasMed	11LTibAnt	12lTibPost	13LPeroneusLong	14LSol	15LExtDigLong	16LFlexDigLong	17RAddLong	18RGlutMax	19RGlutMed	20RIliopsoas	21RSemiMemb	22RBicFemLong	23RRecFem	24RVastMed	25RVastLat	26RGasMed	27RTibAnt	28RTibPost	29RPeroneusLong	30RSol	31RExtDigLong	32RFlexDigLong
19.465	0.024872	0.62622	-0.036621	0.012207	-0.034637	0.00061	-0.031738	-0.007629	0.16113	0.028839	-0.019226	-0.009918	0.12253	-0.12695	-0.06073	0.001068	-0.00824	0.22751	-0.092163	0.068054	-0.012207	-0.007935	0.057678	0.23086	-0.038757	-0.016785	0.04776	-0.003357	-0.62958	0.03952	0.00412	-0.0177
19.466	0.030518	0.62576	-0.022278	0.010376	0.001678	-0.028076	-0.06897	-0.015411	0.14969	0.052032	-0.006409	0.02121	0.15259	-0.032349	-0.023651	-0.00824	-0.007477	0.24078	0.26459	0.045166	-0.009003	-0.00061	0.022278	0.11276	-0.30823	-0.016785	0.20859	-0.012207	-0.23285	0.15076	-0.001373	-0.027466
19.467	0.028687	0.6282	-0.011444	0.002136	0.017395	-0.064392	-0.097504	0.001526	0.16037	0.072174	-0.009003	0.025024	0.1059	0.036621	-0.01358	0.002899	0.001526	0.28534	0.56305	0.052948	-0.025635	-0.016479	0.026093	0.012512	-0.58212	-0.037231	0.10284	-0.011902	-0.3804	0.30487	-0.003052	-0.024414
19.468	0.028381	0.62393	-0.024414	-0.003815	0.017548	-0.066986	-0.097961	0.005951	0.17242	0.069885	0.013885	0.009308	0.075378	0.12375	-0.001831	-0.000916	-0.003662	0.25787	0.26291	0.068817	-0.016785	-0.017548	-0.01236	0.046997	-0.27985	-0.023651	0.01709	-0.005798	-0.11887	0.20264	-0.002441	-0.031891
19.469	0.020447	0.58075	-0.031586	0.007782	0.03006	-0.033417	-0.10376	0.009155	0.16678	0.11124	0.012817	-0.003967	0.055542	0.098877	-0.009613	0.018921	-0.002594	0.24612	-0.14511	0.005493	-0.017395	0.028992	0.001221	0.10452	-0.13519	-0.027313	-0.028992	-0.010529	0.002441	0.37308	-0.00412	-0.036163
19.47	0.022888	0.57495	-0.045166	0.00946	0.013885	-0.014496	-0.10025	0.006256	0.17303	0.11337	0.015717	-0.024872	0.03952	0.053864	-0.007629	-0.020142	-0.014801	0.242	-0.40039	-0.062256	0.002747	0.06073	-0.020599	0.12466	-0.066223	-0.04425	-0.005646	-0.006866	0.52597	0.36057	-0.002747	-0.040741
19.471	0.027924	0.52765	-0.059662	-0.00351	0.012512	-0.009918	-0.12497	0.012512	0.18494	0.070496	0.008698	-0.054626	0.026398	0.0383	-0.012054	-0.011902	-0.023956	0.20554	0.1059	-0.067749	-0.013428	0.050812	-0.13534	0.18265	0.011597	-0.027313	0.041656	0.000458	1.7119	0.085754	-0.000305	-0.032043
19.472	0.019684	0.49439	-0.05722	-0.00473	0.00885	0.005951	-0.11917	0.008087	0.18478	-0.003357	0.015106	-0.018768	0.030518	0.076294	-0.007477	0.009003	0.002899	0.14328	1.0759	-0.009308	-0.021362	0.037537	-0.016785	0.12894	0.017395	-0.014954	0.072327	-0.007324	0.39124	0.012512	-0.002136	-0.027161
19.473	0.023956	0.46936	-0.057831	0.009155	-0.006104	0.022583	-0.1004	0.016479	0.17166	-0.048981	0.012512	-0.007477	0.025635	0.14191	-0.007782	0.024567	0.004272	0.10361	1.3048	0.000763	-0.004578	0.064545	0.06134	0.1239	-0.082855	-0.014496	-0.049591	-0.004425	1.0332	-0.068665	-0.002136	-0.02533
19.474	0.015564	0.43228	-0.056458	0.029144	-0.004578	-0.003052	-0.087128	0.005035	0.17609	-0.12024	0.005341	-0.021667	0.013885	0.20676	-0.002289	0.07843	0.000305	0.048981	0.37949	-0.054016	0.00061	0.034332	0.024414	-0.010071	-0.1178	-0.023956	0.003357	-0.00946	-2.4312	-0.002441	-0.002136	-0.025482
19.475	0.023956	0.38391	-0.06134	0.020447	-0.020447	-0.068512	-0.063934	-0.000763	0.16388	-0.091248	0.003967	0.000153	0.005646	0.11307	-0.009766	-0.09903	-0.000763	-0.012512	-0.18616	-0.080566	-0.00824	0.011139	0.18127	-0.055847	-0.049286	-0.021515	-0.26749	-0.006866	0.24292	-0.006409	-0.005188	-0.02243
19.476	0.021973	0.36575	-0.021973	0.014343	0.013733	-0.091095	-0.037537	-0.003204	0.1857	-0.060272	0.003967	-0.006714	0.032806	0.061493	-0.000305	-0.096893	-0.012054	-0.011139	0.23102	-0.11368	-0.00061	0.018616	0.13825	-0.083771	-0.015717	-0.013275	-0.33295	-0.007324	0.8963	-0.024109	-0.002899	-0.026245
19.477	0.032043	0.31387	-0.020599	-0.002136	0.009766	-0.046692	-0.028229	-0.015106	0.16113	-0.06012	0.012207	-0.017242	0.009766	0.021667	-0.003052	0.019684	-0.001526	-0.11246	0.14435	-0.060272	-0.012207	-0.00946	-0.10162	-0.34683	-0.097961	-0.020905	0.066376	-0.009766	-0.080261	0.088654	-0.00061	-0.022278
19.478	0.025482	0.29526	-0.026855	-0.013885	-0.020752	0.005188	-0.011902	-0.012207	0.16098	-0.047302	0.005188	-0.044708	0.004272	0.054474	-0.002289	0.052032	-0.012817	-0.099335	0.27145	-0.020599	0.036316	0.004425	-0.25742	-0.30579	-0.088806	-0.029907	0.37933	-0.004425	-0.68375	-0.039978	-0.011597	-0.029144
19.479	0.019379	0.28305	-0.035248	-0.001831	-0.002441	-0.020905	0.001678	-0.005341	0.16357	-0.063171	0.012665	-0.0383	0.004425	0.10132	-0.000458	0.03067	0.000916	-0.11856	0.23361	0.019073	0.027618	-0.00946	-0.35156	-0.26291	0.014954	-0.0177	0.14648	-0.014954	0.069275	-0.090942	-0.002289	-0.024719
19.48	0.021362	0.24597	-0.0354	-0.014191	0.019684	-0.028076	-0.007782	-0.002289	0.16541	-0.067291	0.005341	-0.014343	0.012054	0.11856	0.003815	0.049744	0.01297	-0.16876	0.62729	0.055084	-0.038452	-0.002136	-0.41061	-0.093384	-0.00885	-0.02655	0.009155	-0.007324	0.22232	0.016785	-0.001068	-0.032501
19.481	0.024109	0.24826	-0.025787	0.00412	0.024261	-0.042114	-0.011902	0.002747	0.1622	-0.069122	0.003204	0.001068	-0.013275	0.1265	-0.003662	0.027008	-0.006256	-0.086975	0.54657	0.12711	-0.11322	0.013123	-0.38498	0.065002	0.033722	-0.026245	-0.15167	-0.012665	-0.30533	0.11978	-0.002594	-0.029144
19.482	0.017548	0.19608	-0.004578	0.032349	-0.015259	-0.084229	-0.035095	0.004272	0.15533	-0.063171	0.011139	-0.025787	0	0.10346	-0.005798	0.003815	-0.009003	-0.15076	0.32349	0.10925	-0.020752	-0.00473	-0.2681	0.099945	0.10346	-0.032806	0.22751	-0.016327	-0.54764	0.070953	-0.007324	-0.027161
19.483	0.012665	0.17624	0.014648	0.013428	-0.079346	-0.121	-0.024109	-0.010834	0.15045	-0.051117	0.01297	-0.02655	0.002289	0.061646	-0.010681	-0.000763	-0.007629	-0.1976	-0.029449	0.060577	0.04425	-0.012207	-0.12222	-0.015411	0.047302	-0.027618	0.51636	-0.004578	-0.24796	0.11002	-0.001068	-0.029297
19.484	0.02182	0.15152	-0.010529	0.006104	-0.056	-0.10819	-0.032349	-0.007782	0.16357	-0.048523	0.007935	-0.032806	0.021515	-0.019226	-0.007935	-0.012665	-0.002747	-0.35202	-0.097961	-0.034485	0.000153	-0.023499	-0.090027	-0.039063	0.010681	-0.02533	0.48752	-0.004272	0.33234	0.12177	-0.002136	-0.022583
19.485	0.029144	0.15793	-0.051117	0.021667	0.020142	-0.072937	-0.003815	0.002136	0.12558	-0.043488	0.006714	-0.081482	0.045776	-0.078735	-0.009308	0.006561	-0.012817	-0.35416	-0.019836	-0.057373	0.002747	0.003815	-0.078278	0.1709	-0.00412	-0.013428	0.21149	-0.008392	0.52017	0.083923	-0.003052	-0.028229
19.486	0.017395	0.1561	-0.019684	0.011444	0.021362	-0.011597	0.016022	0.001984	0.11383	-0.032501	-0.039978	-0.033875	0.023346	-0.084991	-0.005188	-0.009918	-0.012207	-0.2861	0.04715	-0.014496	0.011139	0.018921	-0.079803	0.13565	-0.14832	-0.027008	-0.013428	-0.004578	-0.22568	-0.077362	0.001526	-0.033875
19.487	0.022583	0.14603	-0.027466	0.000153	0.037994	-0.030975	0.025482	0.002747	0.099792	-0.052185	-0.080261	-0.015259	0.011444	-0.19638	-0.006866	-0.004578	-0.013733	-0.33875	-0.058441	0.088806	0.006714	0.007324	-0.1918	0.05249	-0.19562	-0.027008	-0.14297	-0.002441	0.049286	-0.13916	-0.004272	-0.02243
19.488	0.015869	0.1297	-0.019836	-0.00473	0.040436	-0.000458	0.022278	0.005188	0.11353	-0.11154	-0.061035	-0.022736	-0.031738	-0.20783	-0.006561	0.015564	0.015106	-0.28885	-0.14038	0.20676	-0.007019	-0.004272	-0.10803	-0.049286	-0.20844	-0.020142	-0.41397	-0.013733	0.41031	-0.091553	0.001373	-0.02243
19.489	0.024872	0.13916	-0.03418	-0.000763	0.028992	0.035858	0.029602	0.007782	0.091858	-0.11169	-0.022278	0.000763	-0.0383	-0.11108	0.002747	0.009613	0.027466	-0.33142	0.11612	0.19394	-0.027924	-0.012054	0.10529	-0.059204	-0.15335	-0.025482	-0.29938	-0.005646	-0.5867	0.01358	-0.003052	-0.02655
19.49	0.016785	0.13458	-0.048218	0.003357	0.021515	0.068665	0.003815	0.007019	0.076599	-0.065613	0.093231	-0.004578	-0.029755	-0.024109	0.027313	0.015564	0.008698	-0.39261	0.02655	0.064697	-0.006409	0.000916	-0.016937	0.008392	-0.028839	-0.020447	-0.17838	-0.015259	-0.56366	0.080414	-0.002136	-0.023346
19.491	0.016327	0.13504	-0.098114	-0.006866	0.016785	0.080109	0.016937	0.005188	0.086975	-0.019531	0.14633	-0.012207	-0.001984	-0.013885	0.026703	0.001678	-0.003967	-0.39597	-0.12863	0.07843	0.00061	0.011139	-0.13382	0.02182	0.07431	-0.028534	0.008545	-0.008087	-1.4546	0.15457	0.002747	-0.02533
19.492	0.014801	0.1268	-0.1268	0.016632	0.00351	0.1152	0.027771	0.006409	0.08316	0.003052	0.079651	-0.026855	0.013428	-0.028076	0.013885	0.000763	-0.003967	-0.42618	-0.2211	0.12878	-0.001678	0.007172	-0.056	0.038147	0.055084	-0.02533	0.14893	-0.006561	-1.9936	0.06012	0.001068	-0.029449
19.493	0.008087	0.12878	-0.077057	-0.013123	-0.027924	0.09201	0	0.006409	0.085754	0.021667	0.013885	-0.028687	0.0383	-0.062408	-0.012054	0.012207	-0.015564	-0.41901	-0.23773	0.093384	0.010071	0.039368	-0.22156	0.031738	-0.017548	-0.018463	0.099945	-0.002136	2.2395	0.056305	-0.001831	-0.017548
19.494	0.008087	0.083313	-0.024414	0.001984	-0.12558	0.015259	0.00473	0.007019	0.088043	0.020447	0.001221	-0.072632	0.046387	-0.074005	-0.018158	0.008698	-0.021973	-0.46677	-0.29709	-0.027924	0.01297	0.056458	-0.6691	-0.066071	-0.006866	-0.015564	-0.16892	-0.009918	1.4404	0.045166	-0.001678	-0.024719
19.495	0.014038	0.062256	-0.044403	0.00885	-0.028076	-0.036469	-0.010681	0.007935	0.08667	0.028687	0.008545	-0.060577	0.032043	-0.079346	0.00946	0.002441	-0.010071	-0.39978	-0.42297	-0.054779	0.001373	0.016632	-0.4512	0.045471	0.14694	-0.030365	-0.16647	-0.010681	-1.0834	0.2005	0.007324	-0.018463
19.496	0.006561	0.055542	-0.051117	0.008087	0.008392	-0.004425	-0.00824	0.00412	0.085907	0.018463	0.005646	-0.022736	0.029907	-0.092163	0.009155	-0.010529	0.023651	-0.39993	-0.30731	-0.002747	-0.027924	-0.016174	-0.088501	-0.012512	0.13367	-0.033112	0.03006	-0.011139	-0.91507	0.18463	-0.00351	-0.025024
19.497	0.007477	0.053406	-0.064392	0.01236	-0.014801	0.001678	-0.013275	0.002747	0.084229	0.008087	0.009003	-0.014191	-0.006561	-0.39108	0.002441	-0.000153	0.021057	-0.42694	0.25482	0.014038	-0.028076	-0.027618	0.005035	0.010376	0.087585	-0.040131	0.11887	-0.023041	0.15976	0.20294	-0.002594	-0.029449
19.498	0.012207	0.051575	-0.02121	0.00824	-0.007324	0.014954	-0.017548	0.007629	0.073395	-0.009766	0.018921	-0.017395	-0.008087	-0.53848	-0.010223	0.004425	0.02594	-0.38132	0.37247	0.021362	-0.042725	0.000763	0.046539	-0.029907	0.01358	-0.0354	0.075531	-0.006104	0.91995	0.060272	0.001526	-0.027161
19.499	0.003357	0.06012	0.010834	0.012207	-0.014954	0.041656	-0.021057	-0.000305	0.073853	-0.029907	0.015869	-0.011749	-0.01297	-0.18738	-0.002136	0.001221	0.018311	-0.37689	0.2388	-0.062561	-0.034027	-0.003204	0.059052	-0.058594	0.006561	-0.027008	-0.046692	-0.005188	-0.83237	-0.028229	-0.005798	-0.016785
19.5	0.001068	0.022736	0.033264	-0.003204	-0.036926	0.028076	-0.009613	0.001984	0.079956	-0.046387	0.033264	-0.025177	-0.003662	0.092316	-0.000763	0.006866	0.00412	-0.40054	-0.12558	-0.11597	-0.022736	0.043793	0.070801	0.019073	-0.009308	-0.013733	-0.045776	-0.014191	-1.6873	0.025787	-0.003967	-0.01709
